<svg xmlns="http://www.w3.org/2000/svg" xmlns:xlink="http://www.w3.org/1999/xlink" width="408.36" height="103.4" viewBox="0 0 408.36 103.4">
  <defs>
    <clipPath id="clip-path">
      <path id="Exclusion_3" data-name="Exclusion 3" d="M260.98,103.4a2.835,2.835,0,0,1-3-3V95.9a1.329,1.329,0,0,0-1.5-1.5h-8.1a3,3,0,1,1,0-6h8.1a1.329,1.329,0,0,0,1.5-1.5V82.4a3,3,0,1,1,6,0v18a2.924,2.924,0,0,1-.84,2.174A2.965,2.965,0,0,1,260.98,103.4Zm-21.6,0a2.835,2.835,0,0,1-3-3v-18a3,3,0,1,1,6,0v18a2.835,2.835,0,0,1-3,3Zm-8.4,0h-21.6a2.968,2.968,0,0,1-2.16-.825,2.924,2.924,0,0,1-.84-2.174v-18a3,3,0,1,1,6,0V95.9a1.329,1.329,0,0,0,1.5,1.5h17.1a3,3,0,1,1,0,6Zm-30,0h-21.6a2.965,2.965,0,0,1-2.16-.825,2.924,2.924,0,0,1-.84-2.174v-18a2.925,2.925,0,0,1,.84-2.175,2.965,2.965,0,0,1,2.16-.825h21.6a3,3,0,1,1,0,6h-17.1a1.33,1.33,0,0,0-1.5,1.5v9a1.329,1.329,0,0,0,1.5,1.5h17.1a3,3,0,1,1,0,6Zm-40.8,0a2.835,2.835,0,0,1-3-3v-18A2.965,2.965,0,0,1,158,80.24a2.922,2.922,0,0,1,2.175-.841h10.8a2.921,2.921,0,0,1,2.174.841,2.994,2.994,0,0,1-2.174,5.16h-6.3a1.33,1.33,0,0,0-1.5,1.5v13.5a2.835,2.835,0,0,1-3,3Zm37.8-9h-9.6a3,3,0,1,1,0-6h9.6a3,3,0,1,1,0,6Zm33-9h-12.6a3,3,0,1,1,0-6h12.6a3,3,0,1,1,0,6Zm-79.8,0h-1.8a3,3,0,1,1,0-6h1.8a3,3,0,1,1,0,6Zm248.88-19H365.2a8.305,8.305,0,1,1,0-16.6h15.023L349.928,19.5a9.647,9.647,0,0,0-7.055-2.905H340.3a8.2,8.2,0,0,1-5.976-2.282A8.09,8.09,0,0,1,332,8.3a8.17,8.17,0,0,1,2.282-6.017A8.17,8.17,0,0,1,340.3,0h5.4a19.933,19.933,0,0,1,7.636,1.618,20.043,20.043,0,0,1,6.557,4.275l46.148,46.147a8.232,8.232,0,0,1,2.324,6.06,7.841,7.841,0,0,1-8.3,8.3Zm-59.76,0a7.841,7.841,0,0,1-8.3-8.3V33.2a8.3,8.3,0,1,1,16.6,0V58.1a7.841,7.841,0,0,1-8.3,8.3Zm-23.24,0a7.841,7.841,0,0,1-8.3-8.3V45.65a3.668,3.668,0,0,0-4.15-4.15H282.2a7.841,7.841,0,0,1-8.3-8.3,7.841,7.841,0,0,1,8.3-8.3h22.41a4.246,4.246,0,0,0,3.112-1.037,4.246,4.246,0,0,0,1.037-3.112V8.3a8.17,8.17,0,0,1,2.282-6.017,9.019,9.019,0,0,1,11.993,0A8.093,8.093,0,0,1,325.36,8.3V58.1a8.093,8.093,0,0,1-2.324,6.017A8.208,8.208,0,0,1,317.06,66.4Zm-59.76,0a7.841,7.841,0,0,1-8.3-8.3V8.3a8.17,8.17,0,0,1,2.282-6.017,9.073,9.073,0,0,1,12.035,0A8.17,8.17,0,0,1,265.6,8.3V58.1a7.841,7.841,0,0,1-8.3,8.3Zm-83.084,0a7.841,7.841,0,0,1-8.3-8.3V33.2a8.305,8.305,0,1,1,16.6,0V58.1a7.841,7.841,0,0,1-8.3,8.3Zm-23.157,0H91.3a8.305,8.305,0,1,1,0-16.6h59.76a8.305,8.305,0,1,1,0,16.6Zm-83,0H33.2a8.305,8.305,0,1,1,0-16.6H48.223L17.928,19.5A9.647,9.647,0,0,0,10.873,16.6H8.3a8.205,8.205,0,0,1-5.976-2.282A8.09,8.09,0,0,1,0,8.3,8.17,8.17,0,0,1,2.282,2.282,8.17,8.17,0,0,1,8.3,0h5.4a19.933,19.933,0,0,1,7.636,1.618,20.043,20.043,0,0,1,6.557,4.275L74.036,52.041A8.232,8.232,0,0,1,76.36,58.1a7.841,7.841,0,0,1-8.3,8.3ZM8.3,66.4a8.173,8.173,0,0,1-6.017-2.282A8.17,8.17,0,0,1,0,58.1V33.2a8.17,8.17,0,0,1,2.282-6.017A8.17,8.17,0,0,1,8.3,24.9a8.168,8.168,0,0,1,6.017,2.282A8.17,8.17,0,0,1,16.6,33.2V58.1a8.17,8.17,0,0,1-2.282,6.017A8.17,8.17,0,0,1,8.3,66.4ZM233.977,41.5h-34.86a7.841,7.841,0,0,1-8.3-8.3,7.841,7.841,0,0,1,8.3-8.3h22.41a4.246,4.246,0,0,0,3.112-1.037,4.246,4.246,0,0,0,1.037-3.112,4.247,4.247,0,0,0-1.037-3.113,4.246,4.246,0,0,0-3.112-1.038h-47.31a8.17,8.17,0,0,1-6.017-2.282A8.17,8.17,0,0,1,165.917,8.3,8.173,8.173,0,0,1,168.2,2.282,8.17,8.17,0,0,1,174.217,0h59.76a8.2,8.2,0,0,1,5.976,2.282A8.09,8.09,0,0,1,242.277,8.3l.166,25.066a7.776,7.776,0,0,1-2.365,5.893A8.547,8.547,0,0,1,233.977,41.5ZM91.3,41.5A7.841,7.841,0,0,1,83,33.2V8.3a8.173,8.173,0,0,1,2.282-6.017,9.075,9.075,0,0,1,12.036,0A8.173,8.173,0,0,1,99.6,8.3V33.2a7.841,7.841,0,0,1-8.3,8.3Z" transform="translate(-329.18 -239.4)"/>
    </clipPath>
    <linearGradient id="linear-gradient" x1="0.021" x2="1" y2="1" gradientUnits="objectBoundingBox">
      <stop offset="0" stop-color="#1e885b"/>
      <stop offset="1" stop-color="#00ac63"/>
    </linearGradient>
  </defs>
  <g id="Mask_Group_1" data-name="Mask Group 1" transform="translate(329.18 239.4)" clip-path="url(#clip-path)">
    <rect id="Rectangle_25" data-name="Rectangle 25" width="433" height="141" transform="translate(-342 -252)" fill="url(#linear-gradient)"/>
  </g>
</svg>
